<?xml version="1.0" standalone="no"?>
<!DOCTYPE svg PUBLIC "-//W3C//DTD SVG 20010904//EN"
 "http://www.w3.org/TR/2001/REC-SVG-20010904/DTD/svg10.dtd">
<svg version="1.0" xmlns="http://www.w3.org/2000/svg"
 width="583.000000pt" height="505.000000pt" viewBox="0 0 583.000000 505.000000"
 preserveAspectRatio="xMidYMid meet">

<g transform="translate(0.000000,505.000000) scale(0.100000,-0.100000)"
fill="#000000" stroke="none">
<path d="M0 2525 l0 -2525 2915 0 2915 0 0 2525 0 2525 -2915 0 -2915 0 0
-2525z m1535 2150 c117 -22 231 -82 321 -168 65 -61 83 -86 124 -172 56 -117
70 -174 70 -293 0 -175 -45 -289 -160 -403 l-76 -77 64 -47 c68 -50 136 -144
171 -233 62 -159 50 -369 -29 -541 -34 -73 -145 -190 -223 -235 -63 -37 -191
-84 -247 -92 -25 -3 -198 -1 -385 5 -187 6 -419 14 -515 17 l-175 5 -3 1124
-2 1125 494 0 c394 0 510 -3 571 -15z m1596 -48 c20 -34 77 -132 126 -217 49
-85 101 -173 115 -195 14 -22 77 -131 141 -242 64 -111 161 -275 216 -365 54
-90 113 -192 130 -227 18 -34 34 -61 35 -60 6 7 119 204 134 234 9 17 49 85
89 153 41 67 84 142 97 165 36 66 106 190 116 207 23 36 129 219 151 259 57
104 88 157 143 251 l58 100 234 0 234 0 0 -1127 0 -1128 -202 3 c-112 2 -205
6 -208 9 -3 2 -5 341 -5 751 0 411 -4 749 -8 752 -5 3 -19 -21 -32 -53 -13
-32 -33 -73 -43 -90 -11 -18 -36 -63 -57 -102 -111 -204 -161 -294 -183 -329
-14 -22 -73 -126 -132 -230 -59 -105 -136 -243 -172 -306 -36 -63 -79 -144
-96 -180 -26 -54 -38 -69 -70 -83 -21 -9 -46 -17 -54 -17 -22 0 -63 51 -100
124 -32 63 -187 332 -218 376 -54 79 -378 645 -444 778 -26 50 -50 92 -54 92
-4 0 -6 -335 -4 -745 l3 -745 -208 2 -208 3 -3 1123 -2 1122 222 0 223 0 36
-63z m-621 -37 l0 -60 -254 0 -254 0 -36 44 c-20 24 -36 49 -36 55 0 12 76 16
363 19 l217 2 0 -60z m1847 53 l141 -6 -26 -54 -26 -53 -538 0 c-307 0 -538 4
-538 9 0 5 -16 32 -35 60 l-35 51 457 0 c252 0 522 -3 600 -7z m1163 -47 l0
-55 -46 -7 c-44 -6 -47 -5 -91 37 -79 78 -79 79 37 79 l100 0 0 -54z m-3020
-241 l0 -55 -119 0 c-65 0 -132 -3 -148 -6 -26 -5 -33 0 -71 50 -23 30 -42 58
-42 61 0 3 86 5 190 5 l190 0 0 -55z m1868 48 c-2 -5 -16 -30 -32 -58 l-29
-50 -388 1 -388 1 -40 50 c-22 28 -37 54 -34 57 9 9 915 7 911 -1z m1152 -48
l0 -55 -58 0 c-56 0 -96 16 -98 39 -1 6 -2 12 -3 14 -2 1 -4 12 -7 24 -4 25
11 29 109 32 l57 1 0 -55z m-3020 -214 c0 -22 3 -46 6 -55 5 -14 -6 -16 -82
-16 l-89 1 -32 47 -33 47 38 6 c20 3 72 7 115 8 l77 1 0 -39z m1578 32 c82 -3
142 -10 142 -16 0 -5 -12 -29 -27 -53 l-28 -44 -252 0 -252 0 -35 52 c-19 28
-33 55 -30 60 6 10 281 11 482 1z m1426 1 c11 -4 16 -19 16 -49 0 -24 -3 -46
-7 -48 -5 -2 -25 -2 -46 1 -38 4 -58 23 -71 69 -6 19 -3 22 31 26 21 2 43 4
50 5 6 1 18 -1 27 -4z m-1414 -237 c0 -4 -11 -30 -25 -57 l-25 -50 -123 0
-122 0 -38 51 c-20 28 -35 53 -33 57 6 10 366 9 366 -1z m-1580 -47 l0 -50
-42 0 c-75 0 -85 7 -115 77 -6 15 18 20 95 22 l62 1 0 -50z m3010 5 l0 -45
-55 0 c-30 0 -55 3 -55 8 0 4 -4 24 -9 45 l-9 37 64 0 64 0 0 -45z m-3010
-240 l0 -55 -90 0 -89 0 14 48 c8 26 15 48 15 49 0 4 50 10 98 12 l52 1 0 -55z
m1448 23 c-14 -18 -28 -43 -32 -55 -7 -22 -26 -32 -26 -14 0 4 -11 25 -25 45
-14 21 -23 42 -20 47 4 5 33 9 67 9 l60 0 -24 -32z m1562 -17 c0 -56 -15 -68
-76 -57 -29 6 -35 12 -45 49 -6 23 -13 45 -16 50 -2 4 28 7 66 7 l71 0 0 -49z
m-3012 -238 l3 -53 -165 0 -166 0 -24 49 c-14 27 -22 51 -19 55 4 4 88 5 187
4 l181 -3 3 -52z m3012 2 l0 -55 -47 0 -48 0 -16 50 -15 49 35 4 c97 10 91 13
91 -48z m-3020 -233 c3 -29 4 -55 1 -58 -2 -2 -39 -4 -81 -4 l-77 0 -41 52
c-22 29 -37 55 -32 58 5 3 57 5 117 5 l108 -1 5 -52z m3022 30 c3 -10 3 -32 0
-50 -4 -30 -7 -32 -42 -32 -34 0 -40 4 -59 42 -11 23 -18 45 -15 50 3 4 29 8
58 8 43 0 55 -4 58 -18z m-2044 -262 c17 -27 32 -52 32 -55 0 -3 -34 -5 -75
-5 -82 0 -82 0 -101 75 -5 21 -2 24 28 28 80 10 81 9 116 -43z m-972 -7 c-3
-25 -9 -49 -12 -52 -6 -6 -84 79 -84 92 0 4 23 7 51 7 l52 0 -7 -47z m3018 -1
c0 -23 -3 -45 -7 -48 -3 -3 -24 -3 -45 1 -32 5 -43 13 -52 36 -20 47 -8 61 52
57 l53 -3 -1 -43z m-3016 -234 c-2 -29 -6 -52 -10 -50 -5 1 -33 2 -63 2 -49 0
-55 3 -60 23 -13 60 -12 62 30 68 22 3 55 7 73 8 l33 1 -3 -52z m1117 6 c22
-37 25 -48 14 -55 -8 -5 -67 -9 -131 -9 l-118 0 0 55 0 55 104 0 104 0 27 -46z
m973 -11 l-3 -48 -78 -3 -78 -3 17 33 c29 58 43 68 96 68 l49 0 -3 -47z m922
-3 c0 -39 -1 -40 -35 -40 -41 0 -50 15 -36 53 8 21 17 27 41 27 28 0 30 -2 30
-40z m-922 -231 l3 -46 -47 -7 c-26 -3 -66 -6 -90 -6 -49 0 -53 10 -33 68 12
36 24 41 104 39 l60 -2 3 -46z m-3669 -555 c31 -14 68 -37 83 -51 l27 -25 -67
-64 c-65 -63 -67 -63 -87 -45 -55 51 -147 67 -195 34 -35 -24 -40 -33 -40 -75
0 -30 5 -40 33 -56 17 -11 57 -27 87 -36 178 -53 194 -60 242 -107 37 -37 48
-55 53 -93 16 -104 -21 -191 -110 -258 -113 -86 -233 -99 -358 -40 -57 27
-148 93 -155 113 -2 5 26 38 63 74 l67 66 40 -37 c73 -65 153 -82 215 -44 39
23 57 54 49 86 -8 31 -27 40 -122 59 -106 22 -191 63 -236 113 -43 48 -52 85
-46 187 7 106 39 157 124 197 111 52 223 53 333 2z m2653 17 c118 -46 213
-142 267 -270 97 -231 -58 -508 -326 -582 -71 -20 -86 -21 -158 -11 -108 16
-207 65 -272 135 -232 254 -149 620 166 734 57 20 80 23 166 20 72 -3 116 -10
157 -26z m-1748 -18 c3 -21 6 -100 6 -175 l0 -138 78 0 c44 0 120 3 170 6 l92
7 0 168 0 169 93 0 94 0 6 -97 c4 -54 7 -250 7 -435 l0 -338 -101 0 -101 0 7
125 c4 68 4 145 1 170 l-7 45 -122 0 c-67 0 -146 -3 -174 -6 l-53 -7 0 -163 0
-164 -90 0 -90 0 0 178 c0 98 3 294 7 435 l6 257 82 0 82 0 7 -37z m3127 9
c75 -30 148 -106 178 -187 19 -49 22 -74 19 -135 -11 -185 -127 -283 -375
-314 -67 -9 -129 -16 -137 -16 -13 0 -16 -15 -16 -94 l0 -93 -37 -7 c-21 -3
-61 -6 -90 -6 l-51 0 -1 441 0 441 227 -4 c205 -4 232 -6 283 -26z m-2430
-1302 c11 -6 19 -21 19 -36 0 -24 -2 -25 -45 -18 -60 9 -59 -9 3 -38 42 -21
47 -27 50 -59 6 -70 -78 -104 -135 -55 -26 23 -27 26 -12 41 13 13 21 15 37 6
11 -6 28 -11 36 -11 28 0 17 19 -24 40 -21 11 -44 29 -50 39 -29 56 60 123
121 91z m259 -35 c12 -19 27 -35 34 -35 7 0 20 16 29 35 19 39 28 43 48 19 9
-11 14 -45 14 -102 l0 -86 -33 -7 c-45 -9 -123 19 -139 51 -7 14 -13 55 -13
93 0 59 2 67 19 67 11 0 28 -15 41 -35z m474 10 c48 -44 31 -106 -34 -123 -32
-8 -35 -11 -32 -40 3 -28 0 -32 -20 -32 -47 0 -68 35 -68 115 0 46 4 60 25 80
33 34 92 34 129 0z"/>
<path d="M870 4021 l0 -279 278 5 c152 3 293 9 312 15 19 6 56 26 82 45 147
107 132 345 -30 445 -66 41 -123 48 -389 48 l-253 0 0 -279z m640 -68 c0 -6
-12 -26 -27 -43 l-27 -33 -90 6 c-102 5 -127 12 -119 33 3 8 0 14 -7 14 -9 0
-9 4 1 16 13 15 11 17 -18 12 -18 -2 -30 -2 -28 2 2 3 74 6 159 6 112 -1 156
-4 156 -13z"/>
<path d="M868 3353 c-1 -4 -2 -133 0 -285 l3 -278 277 0 c326 0 357 5 432 76
103 96 130 203 79 314 -31 67 -75 112 -143 148 l-51 27 -297 3 c-163 2 -298
-1 -300 -5z m672 -342 c0 -6 -5 -13 -12 -17 -7 -4 -8 -3 -4 4 4 7 -12 12 -51
15 l-58 3 63 2 c34 1 62 -2 62 -7z m-33 -17 c-3 -3 -12 -4 -19 -1 -8 3 -5 6 6
6 11 1 17 -2 13 -5z m-46 -41 c13 -16 12 -17 -3 -4 -10 7 -18 15 -18 17 0 8 8
3 21 -13z m39 11 c0 -8 -19 -13 -24 -6 -3 5 1 9 9 9 8 0 15 -2 15 -3z m-57
-31 c-7 -2 -19 -2 -25 0 -7 3 -2 5 12 5 14 0 19 -2 13 -5z"/>
<path d="M3295 1770 c-47 -21 -105 -79 -134 -135 -32 -61 -29 -164 7 -230 55
-101 179 -159 287 -135 168 38 273 198 220 337 -24 62 -88 131 -150 159 -63
30 -170 32 -230 4z"/>
<path d="M4630 1630 l0 -149 38 -7 c51 -10 205 11 242 32 89 53 75 210 -23
255 -33 14 -66 19 -149 19 l-108 0 0 -150z"/>
<path d="M3187 573 c-16 -15 -6 -34 15 -31 29 4 38 38 10 38 -10 0 -22 -3 -25
-7z"/>
</g>
</svg>
